<?xml version="1.0" encoding="UTF-8"?>
<svg width="89px" height="89px" viewBox="0 0 89 89" version="1.1" xmlns="http://www.w3.org/2000/svg" xmlns:xlink="http://www.w3.org/1999/xlink">
    <!-- Generator: Sketch 59 (86127) - https://sketch.com -->
    <title>noun_edit_782460</title>
    <desc>Created with Sketch.</desc>
    <g id="Page-1" stroke="none" stroke-width="1" fill="none" fill-rule="evenodd">
        <g id="Artboard" transform="translate(-510.000000, -238.000000)" fill="#000000" fill-rule="nonzero">
            <g id="noun_edit_782460" transform="translate(510.000000, 237.000000)">
                <g id="Group" transform="translate(0.000000, 0.637820)">
                    <path d="M74.652601,0.346530291 C74.5479945,0.351530836 74.4437185,0.36194509 74.340201,0.37779 C73.6643684,0.458947395 73.0362194,0.76750315 72.558901,1.25279 L27.308901,46.5028 C26.8236344,46.9800925 26.5150802,47.6082029 26.433901,48.284 L25.027601,61.0028 C24.9272429,61.90841 25.2438529,62.8105561 25.8881457,63.4548294 C26.5324384,64.0991027 27.434594,64.4156854 28.340201,64.3153 L41.058901,62.909 C41.7417559,62.8432494 42.3814566,62.5454754 42.871401,62.0653 L88.121401,16.81529 C88.6861907,16.2523451 89.0036417,15.4877198 89.0036417,14.69029 C89.0036417,13.8928602 88.6861907,13.1282349 88.121401,12.56529 L76.808901,1.25279 C76.2423304,0.671437827 75.4643696,0.34447639 74.652601,0.346530291 L74.652601,0.346530291 Z M74.683601,7.59659 L81.746101,14.69034 L80.339901,16.09659 L73.277301,9.03409 L74.683601,7.59659 Z M3.6836012,10.37784 C2.15004099,10.5387328 0.988138483,11.835885 0.996357407,13.37784 L0.996357407,85.3778 C0.996357407,87.0345856 2.33961557,88.3778 3.9964012,88.3778 L75.996401,88.3778 C77.6531866,88.3778 78.9967023,87.0345856 78.9967023,85.3778 L78.9967023,36.37784 C79.0117019,35.2959323 78.4432751,34.2895959 77.5087825,33.7441768 C76.5742898,33.1987578 75.4185122,33.1987578 74.4840195,33.7441768 C73.5495269,34.2895959 72.9811001,35.2959323 72.996401,36.37784 L72.996401,82.3778 L6.996401,82.3778 L6.996401,16.37784 L52.996401,16.37784 C54.0783087,16.3931409 55.0846451,15.8247141 55.6300642,14.8902215 C56.1754832,13.9557288 56.1754832,12.7999512 55.6300642,11.8654585 C55.0846451,10.9309659 54.0783087,10.3625391 52.996401,10.37784 L3.9964012,10.37784 C3.89230526,10.3724115 3.78799714,10.3724115 3.6839012,10.37784 L3.6836012,10.37784 Z M69.027301,13.25284 L76.089901,20.34659 L41.433601,55.0028 L34.371101,47.9091 L69.027301,13.25284 Z M31.839901,53.8466 L35.496101,57.5028 L31.402301,57.9716 L31.839901,53.8466 Z" id="Shape"></path>
                </g>
            </g>
        </g>
    </g>
</svg>